<svg width="30" height="25" viewBox="0 0 30 25" fill="none" xmlns="http://www.w3.org/2000/svg">
<path d="M4.875 21.5833V23.125C4.875 23.5618 4.71927 23.928 4.40781 24.2234C4.09635 24.5189 3.71042 24.6667 3.25 24.6667H1.625C1.16458 24.6667 0.778646 24.5189 0.467187 24.2234C0.155729 23.928 0 23.5618 0 23.125V10.7917L3.4125 1.54167C3.575 1.07917 3.86615 0.706597 4.28594 0.423958C4.70573 0.141319 5.17292 0 5.6875 0H23.5625C24.0771 0 24.5443 0.141319 24.9641 0.423958C25.3839 0.706597 25.675 1.07917 25.8375 1.54167L29.25 10.7917V23.125C29.25 23.5618 29.0943 23.928 28.7828 24.2234C28.4714 24.5189 28.0854 24.6667 27.625 24.6667H26C25.5396 24.6667 25.1536 24.5189 24.8422 24.2234C24.5307 23.928 24.375 23.5618 24.375 23.125V21.5833H4.875ZM4.55 7.70833H24.7L22.9938 3.08333H6.25625L4.55 7.70833ZM7.3125 16.9583C7.98958 16.9583 8.5651 16.7335 9.03906 16.2839C9.51302 15.8342 9.75 15.2882 9.75 14.6458C9.75 14.0035 9.51302 13.4575 9.03906 13.0078C8.5651 12.5582 7.98958 12.3333 7.3125 12.3333C6.63542 12.3333 6.0599 12.5582 5.58594 13.0078C5.11198 13.4575 4.875 14.0035 4.875 14.6458C4.875 15.2882 5.11198 15.8342 5.58594 16.2839C6.0599 16.7335 6.63542 16.9583 7.3125 16.9583ZM21.9375 16.9583C22.6146 16.9583 23.1901 16.7335 23.6641 16.2839C24.138 15.8342 24.375 15.2882 24.375 14.6458C24.375 14.0035 24.138 13.4575 23.6641 13.0078C23.1901 12.5582 22.6146 12.3333 21.9375 12.3333C21.2604 12.3333 20.6849 12.5582 20.2109 13.0078C19.737 13.4575 19.5 14.0035 19.5 14.6458C19.5 15.2882 19.737 15.8342 20.2109 16.2839C20.6849 16.7335 21.2604 16.9583 21.9375 16.9583ZM3.25 18.5H26V10.7917H3.25V18.5Z" fill="black"/>
</svg>
